<svg xmlns="http://www.w3.org/2000/svg" xmlns:xlink="http://www.w3.org/1999/xlink" width="68" height="72" viewBox="0 0 68 72"><defs><clipPath id="hmrna"><path fill="#fff" d="M71.989 36.012L35.992 72.009-.005 36.012 35.992.015z"/></clipPath></defs><g><g><g><path fill="none" stroke="#00b4ff" stroke-miterlimit="50" stroke-width="8" d="M71.989 36.012v0L35.992 72.009v0L-.005 36.012v0L35.992.015v0z" clip-path="url(&quot;#hmrna&quot;)"/></g><g><path style="fill:#1E201D;" d="M21.205,5.007c-0.429-0.444-1.143-0.444-1.587,0c-0.429,0.429-0.429,1.143,0,1.571l8.047,8.047H1.111
	C0.492,14.626,0,15.118,0,15.737c0,0.619,0.492,1.127,1.111,1.127h26.554l-8.047,8.032c-0.429,0.444-0.429,1.159,0,1.587
	c0.444,0.444,1.159,0.444,1.587,0l9.952-9.952c0.444-0.429,0.444-1.143,0-1.571L21.205,5.007z"/></g></g></g></svg>